# AST/ASF file generated using VICON BodyLanguage
# -----------------------------------------------
:version 1.10
:name VICON
:units
  mass 1.0
  length 0.45
  angle deg
:documentation
   .ast/.asf automatically generated from VICON data using
   VICON BodyBuilder and BodyLanguage model FoxedUp or BRILLIANT.MOD
:root
   order TX TY TZ RX RY RZ
   axis XYZ
   position 0 0 0  
   orientation 0 0 0 
:bonedata
  begin
     id 1 
     name lhipjoint
     direction 0.677091 -0.635792 0.370561 
     length 2.74323 
     axis 0 0 0  XYZ
  end
  begin
     id 2 
     name lfemur
     direction 0.34202 -0.939693 0  
     length 7.44995  
     axis 0 0 20  XYZ
    dof rx ry rz
    limits (-160.0 20.0)
           (-70.0 70.0)
           (-60.0 70.0)
  end
  begin
     id 3 
     name ltibia
     direction 0.34202 -0.939693 0   
     length 7.34467   
     axis 0 0 20   XYZ
    dof rx
    limits (-10.0 170.0)
  end
  begin
     id 4 
     name lfoot
     direction 0.101953 -0.280114 0.954537   
     length 1.72105   
     axis -90 7.62852e-016 20   XYZ
    dof rx rz
    limits (-45.0 90.0)
           (-70.0 20.0)
  end
  begin
     id 5 
     name ltoes
     direction 1.53537e-011 -4.21915e-011 1   
     length 0.865872   
     axis -90 7.62852e-016 20   XYZ
    dof rx
    limits (-90.0 20.0)
  end
  begin
     id 6 
     name rhipjoint
     direction -0.695735 -0.620586 0.361699   
     length 2.81045  
     axis 0 0 0  XYZ 
  end
  begin
     id 7 
     name rfemur
     direction -0.34202 -0.939693 0   
     length 7.29387   
     axis 0 0 -20   XYZ
    dof rx ry rz
    limits (-160.0 20.0)
           (-70.0 70.0)
           (-70.0 60.0)
  end
  begin
     id 8 
     name rtibia
     direction -0.34202 -0.939693 0   
     length 7.44935   
     axis 0 0 -20   XYZ
    dof rx
    limits (-10.0 170.0)
 end
 begin
     id 9 
     name rfoot
     direction -0.104163 -0.286184 0.952496   
     length 1.77731  
     axis -90 -7.62852e-016 -20   XYZ
    dof rx rz
    limits (-45.0 90.0)
           (-20.0 70.0)
  end
  begin
     id 10 
     name rtoes
     direction -1.5355e-011 -4.21888e-011 1   
     length 0.892424   
     axis -90 -7.62852e-016 -20   XYZ
    dof rx
    limits (-90.0 20.0)
  end
  begin
     id 11 
     name lowerback
     direction 0.0100202 0.997226 -0.0737589   
     length 2.16892   
     axis 0 0 0   XYZ
    dof rx ry rz
    limits (-20.0 45.0)
           (-30.0 30.0)
           (-30.0 30.0)
  end
  begin
     id 12 
     name upperback
     direction 0.00432398 0.999988 -0.00215019   
     length 2.17326   
     axis 0 0 0   XYZ
    dof rx ry rz
    limits (-20.0 45.0)
           (-30.0 30.0)
           (-30.0 30.0)
  end
  begin
     id 13 
     name thorax
     direction -0.00195047 0.999485 0.0320434   
     length 2.18139   
     axis 0 0 0   XYZ
    dof rx ry rz
    limits (-20.0 45.0)
           (-30.0 30.0)
           (-30.0 30.0)
  end
  begin
     id 14 
     name lowerneck
     direction 0.00782762 0.986241 0.165128   
     length 1.88415   
     axis 0 0 0   XYZ
    dof rx ry rz
    limits (-20.0 45.0)
           (-30.0 30.0)
           (-30.0 30.0)
  end
  begin
     id 15 
     name upperneck
     direction 0.00988667 0.981098 -0.193258   
     length 1.9242   
     axis 0 0 0   XYZ
    dof rx ry rz
    limits (-20.0 45.0)
           (-30.0 30.0)
           (-30.0 30.0)
  end
  begin
     id 16
     name head
     direction 0.00252199 0.996513 -0.0833958  
     length 1.93887  
     axis 0 0 0   XYZ
    dof rx ry rz
    limits (-20.0 45.0)
           (-30.0 30.0)
           (-30.0 30.0)
  end
  begin
     id 17 
     name lclavicle
     direction 0.929492 0.368193 -0.0218667  
     length 3.5955  
     axis 0 0 0   XYZ
    dof ry rz
    limits (-20.0 10.0)
           (0.0 20.0)
  end
  begin
     id 18 
     name lhumerus
     direction 1 -4.48972e-011 1.41911e-027   
     length 5.2795   
     axis 180 -30 -90   XYZ
    dof rx ry rz
    limits (-60.0 90.0)
           (-90.0 90.0)
           (-90.0 90.0)
  end
  begin
     id 19
     name lradius
     direction 1 -4.48963e-011 7.05772e-027   
     length 3.53504   
     axis 180 -30 -90   XYZ
    dof rx
    limits (-10.0 170.0)
  end
  begin
     id 20
     name lwrist
     direction 1 -4.48957e-011 9.54866e-027   
     length 1.76752   
     axis -7.69462e-015 90 90   XYZ
    dof ry
    limits (-180.0 0.0)
 end
  begin
     id 21 
     name lhand
     direction 1 -4.48979e-011 1.90973e-026   
     length 0.667948   
     axis -1.21857e-014 90 90   XYZ
    dof rx rz
    limits (-90.0 90.0)
           (-45.0 45.0)
  end
  begin
     id 22 
     name lfingers
     direction 1 -4.48987e-011 3.81946e-026   
     length 0.538517   
     axis -2.43714e-014 90 90   XYZ
    dof rx
    limits (0.0 90.0)
  end
  begin
     id 23
     name lthumb
     direction 0.707107 -6.34962e-011 0.707107   
     length 0.773206   
     axis -90 45 2.85299e-015   XYZ
    dof rx rz
    limits (-45.0 45.0)
           (-45.0 45.0)
  end
  begin
     id 24 
     name rclavicle
     direction -0.898763 0.414256 -0.143584   
     length 3.5176  
     axis 0 0 0   XYZ 
    dof ry rz
    limits (-10.0 20.0)
           (-20.0 0.0)
  end
  begin
     id 25 
     name rhumerus
     direction -1 -4.48971e-011 1.129e-027  
     length 5.25035   
     axis 180 30 90   XYZ
    dof rx ry rz
    limits (-90.0 60.0)
           (-90.0 90.0)
           (-90.0 90.0)
  end
  begin
     id 26 
     name rradius
     direction -1 -4.48955e-011 6.34664e-027   
     length 3.58884   
     axis 180 30 90   XYZ
    dof rx
    limits (-10.0 170.0)
  end
  begin
     id 27 
     name rwrist
     direction -1 -4.48966e-011 9.54866e-027   
     length 1.79442   
     axis -7.69462e-015 -90 -90   XYZ
    dof ry
    limits (-180.0 0.0)
  end
  begin
     id 28
     name rhand
     direction -1 -4.48973e-011 1.90973e-026   
     length 0.779235   
     axis -1.21857e-014 -90 -90   XYZ
    dof rx rz
    limits (-90.0 90.0)
           (-45.0 45.0)
  end
  begin
     id 29
     name rfingers
     direction -1 -4.48984e-011 3.81946e-026   
     length 0.62824   
     axis -2.43714e-014 -90 -90   XYZ
    dof rx
    limits (0.0 90.0)
  end
  begin
     id 30
     name rthumb
     direction -0.707107 -6.34968e-011 0.707107   
     length 0.90203   
     axis -90 -45 -2.85299e-015   XYZ
    dof rx rz
    limits (-45.0 45.0)
           (-45.0 45.0)
  end
:hierarchy
  begin
    root lhipjoint rhipjoint lowerback
    lhipjoint lfemur
    lfemur ltibia
    ltibia lfoot
    lfoot ltoes
    rhipjoint rfemur
    rfemur rtibia
    rtibia rfoot
    rfoot rtoes
    lowerback upperback
    upperback thorax
    thorax lowerneck lclavicle rclavicle
    lowerneck upperneck
    upperneck head
    lclavicle lhumerus
    lhumerus lradius
    lradius lwrist
    lwrist lhand lthumb
    lhand lfingers
    rclavicle rhumerus
    rhumerus rradius
    rradius rwrist
    rwrist rhand rthumb
    rhand rfingers
  end

#!OML:ASF I:\Random Stuff\random\construction\7_22_03\Session 2\subj1.ASF
:FULLY-SPECIFIED
:DEGREES
85
root -18.5905 17.6484 -2.02339 -146.254 87.2719 -151.878
lowerback 3.11184 0.660632 -0.984664
upperback -1.92536 0.869149 0.759306
thorax -3.75374 0.471184 1.27901
lowerneck -23.3774 0.0562336 0.334476
upperneck 27.3823 -0.105117 1.08301
head 13.0822 0.256336 0.372928
rclavicle -3.94366e-016 -6.06759e-015
rhumerus -39.7016 15.7207 -90.1956
rradius 69.1293
rwrist 2.71102
rhand -17.0583 22.3923
rfingers 7.12502
rthumb 9.17908 -7.38794
lclavicle -3.94366e-016 -6.06759e-015
lhumerus -39.0591 -12.7546 92.387
lradius 63.2181
lwrist 24.729
lhand -21.2203 59.7058
lfingers 7.12502
lthumb 5.16164 89.6229
rfemur -7.34135 21.0927 19.9642
rtibia 13.8903
rfoot -10.0964 -33.6689
rtoes -7.89834
lfemur -16.3466 -17.6138 -15.2378
ltibia 23.8161
lfoot -14.1964 20.0387
ltoes -25.5676
86
root -18.5905 17.6483 -2.03889 -143.667 87.1312 -149.405
lowerback 3.17728 0.733582 -0.888498
upperback -1.8978 0.969097 0.725925
thorax -3.76294 0.517726 1.18363
lowerneck -23.459 -0.0310679 0.324075
upperneck 27.5497 -0.232313 1.11341
head 13.1687 0.207318 0.365635
rclavicle -1.27983e-014 -1.19271e-014
rhumerus -40.4377 15.2818 -90.5258
rradius 69.1251
rwrist 3.01625
rhand -17.5666 22.5237
rfingers 7.12502
rthumb 8.68855 -7.27744
lclavicle -1.27983e-014 -1.19271e-014
lhumerus -39.2797 -12.7446 92.4455
lradius 62.7057
lwrist 24.7874
lhand -21.4097 59.6959
lfingers 7.12502
lthumb 4.97874 89.6174
rfemur -7.34246 21.0719 20.0649
rtibia 13.6966
rfoot -10.2316 -33.697
rtoes -7.77631
lfemur -16.5712 -18.0478 -15.0204
ltibia 23.958
lfoot -14.3685 20.4531
ltoes -25.1997
87
root -18.593 17.6491 -2.05609 -141.403 86.9998 -147.266
lowerback 3.25229 0.78675 -0.815086
upperback -1.85952 1.04066 0.673355
thorax -3.76532 0.550288 1.08293
lowerneck -23.486 -0.068661 0.391949
upperneck 27.6116 -0.325551 1.15891
head 13.2005 0.182041 0.35594
rclavicle -1.49089e-014 1.59028e-015
rhumerus -41.0966 14.6958 -90.7642
rradius 68.8908
rwrist 2.63974
rhand -17.5709 23.3066
rfingers 7.12502
rthumb 8.68447 -6.49476
lclavicle -1.49089e-014 1.59028e-015
lhumerus -39.3878 -12.6557 92.382
lradius 61.84
lwrist 24.945
lhand -21.58 59.6107
lfingers 7.12502
lthumb 4.81433 89.536
rfemur -7.34281 21.0462 20.1324
rtibia 13.4341
rfoot -10.3226 -33.7461
rtoes -7.60131
lfemur -16.824 -18.0836 -14.8476
ltibia 24.0878
lfoot -14.3274 20.5164
ltoes -25.2477
88
root -18.598 17.6525 -2.07323 -139.617 86.9439 -145.629
lowerback 3.32284 0.899213 -0.793711
upperback -1.83092 1.18844 0.604992
thorax -3.77746 0.622009 0.989964
lowerneck -23.5173 -0.202909 0.389024
upperneck 27.7237 -0.524444 1.19026
head 13.2547 0.102246 0.334098
rclavicle 2.03754e-015 -9.83984e-015
rhumerus -41.65 14.1436 -90.8894
rradius 68.1621
rwrist 2.32924
rhand -17.5535 23.9343
rfingers 7.12502
rthumb 8.70127 -5.86632
lclavicle 2.03754e-015 -9.83984e-015
lhumerus -39.4608 -12.7061 92.3855
lradius 60.6409
lwrist 25.4002
lhand -22.0642 59.4885
lfingers 7.12502
lthumb 4.34679 89.4239
rfemur -7.4019 21.0506 20.1026
rtibia 13.1323
rfoot -10.0561 -33.8242
rtoes -8.23593
lfemur -17.0856 -17.8642 -14.7518
ltibia 24.1853
lfoot -13.8022 20.3643
ltoes -26.8976
89
root -18.602 17.6571 -2.09014 -138.124 86.919 -144.242
lowerback 3.42616 1.02838 -0.867683
upperback -1.77233 1.35399 0.557264
thorax -3.77985 0.704954 0.969984
lowerneck -23.6083 -0.351066 0.28423
upperneck 27.8535 -0.749786 1.35982
head 13.3302 0.0201863 0.379037
rclavicle 1.90709e-014 -7.35503e-015
rhumerus -42.1627 13.5525 -90.898
rradius 66.9682
rwrist 2.17487
rhand -17.5362 23.9903
rfingers 7.12502
rthumb 8.71793 -5.80968
lclavicle 1.90709e-014 -7.35503e-015
lhumerus -39.4532 -12.8401 92.3684
lradius 59.0179
lwrist 26.5164
lhand -23.1423 59.3418
lfingers 7.12502
lthumb 3.30571 89.2959
rfemur -7.43207 21.0582 20.0571
rtibia 12.8342
rfoot -9.61738 -33.8488
rtoes -9.39143
lfemur -17.2585 -17.4662 -14.7227
ltibia 24.2331
lfoot -13.2521 20.0479
ltoes -28.487
90
root -18.6007 17.6613 -2.11367 -136.578 86.9651 -142.726
lowerback 3.52525 1.16173 -0.958767
upperback -1.65906 1.52308 0.491726
thorax -3.72341 0.789136 0.941395
lowerneck -23.6205 -0.37857 0.377092
upperneck 27.8968 -0.79427 1.26891
head 13.3502 -0.000875005 0.319944
rclavicle 7.1811e-015 -1.28216e-014
rhumerus -42.4678 13.0441 -90.8421
rradius 65.2337
rwrist 1.80468
rhand -17.8008 24.7866
rfingers 7.12502
rthumb 8.46261 -5.02383
lclavicle 7.1811e-015 -1.28216e-014
lhumerus -39.3193 -13.1058 92.2748
lradius 57.0731
lwrist 28.5966
lhand -24.7877 60.2328
lfingers 7.12502
lthumb 1.71658 -90.2056
rfemur -7.38026 21.1059 19.9767
rtibia 12.5392
rfoot -9.28559 -33.8516
rtoes -10.0117
lfemur -17.2693 -17.0747 -14.8039
ltibia 24.2358
lfoot -14.1335 19.717
ltoes -24.8302
